<?xml version="1.0" encoding="UTF-8"?>
<svg width="1110px" height="956px" viewBox="0 0 1110 956" version="1.1" xmlns="http://www.w3.org/2000/svg" xmlns:xlink="http://www.w3.org/1999/xlink">
    <title>white-stack</title>
    <g id="Brand-Assets" stroke="none" stroke-width="1" fill="none" fill-rule="evenodd">
        <g id="White-Stack" transform="translate(-186, -178)" fill="#FFFFFF" fill-rule="nonzero">
            <g id="white-stack" transform="translate(186, 178)">
                <g id="THAT" transform="translate(0, 656)">
                    <polygon id="Path" points="1014.85755 300 965.429021 300 965.429021 49.7142857 870 49.7142857 870 0 1110 0 1110 49.7142857 1014.85755 49.7142857"></polygon>
                    <path d="M770.520962,171.45143 L770.520962,120.411237 C770.520962,110.739427 768.676439,101.600386 764.987394,92.9941144 C761.298348,84.3878426 756.256653,76.8880915 749.862308,70.494861 C743.467962,64.1016305 735.966904,59.0608142 727.359131,55.372412 C718.751359,51.6840098 709.610724,49.8398087 699.937228,49.8398087 C690.263731,49.8398087 681.123096,51.6840098 672.515324,55.372412 C663.907552,59.0608142 656.406493,64.1016305 650.012147,70.494861 C643.617802,76.8880915 638.576107,84.3878426 634.887062,92.9941144 C631.198016,101.600386 629.353494,110.739427 629.353494,120.411237 L629.328817,171.45143 L770.520962,171.45143 Z M820,300 L770.739726,300 L770.74347,221.729614 L629.240894,221.729614 L629.240894,300 L580,300 L580,120.083682 C580,103.48675 583.138622,87.9009763 589.415867,73.3263598 C595.693112,58.7517434 604.23714,46.0251046 615.047951,35.1464435 C625.858762,24.2677824 638.552746,15.6903766 653.129904,9.41422594 C667.707062,3.13807531 683.295554,0 699.895379,0 C716.495205,0 732.083697,3.13807531 746.660854,9.41422594 C761.238012,15.6903766 773.96687,24.2677824 784.847428,35.1464435 C795.727986,46.0251046 804.306888,58.7517434 810.584133,73.3263598 C816.861378,87.9009763 820,103.48675 820,120.083682 L820,300 Z" id="Shape"></path>
                    <polygon id="Path" points="340.000517 300 290 300 290 1.21982555e-13 340.000517 1.62258723e-13 340.000517 125.429136 480.142857 125.429136 480.142857 3.23309088e-14 530 1.23975545e-13 529.972567 300 480.142857 300 480.142857 174.571429 340.000517 174.571429"></polygon>
                    <polygon id="Path" points="144.85755 300 95.4290212 300 95.4290212 49.7142857 -2.02962647e-15 49.7142857 0 0 240 0 240 49.7142857 144.85755 49.7142857"></polygon>
                </g>
                <path d="M541.346667,392.533333 C541.346667,399.84536 547.094612,405.814883 554.318561,406.169957 L555,406.186667 C562.540528,406.186667 568.653333,400.073861 568.653333,392.533333 L568.653333,225.28 L449.186667,225.28 C422.794819,225.28 401.4,203.885181 401.4,177.493333 C401.4,151.101486 422.794819,129.706667 449.186667,129.706667 L660.813333,129.706667 C687.205181,129.706667 708.6,151.101486 708.6,177.493333 C708.6,203.885181 687.205181,225.28 660.813333,225.28 L619.853333,225.28 L619.853333,191.146667 L660.813333,191.146667 C668.353861,191.146667 674.466667,185.033861 674.466667,177.493333 C674.466667,169.952806 668.353861,163.84 660.813333,163.84 L449.186667,163.84 C441.646139,163.84 435.533333,169.952806 435.533333,177.493333 C435.533333,185.033861 441.646139,191.146667 449.186667,191.146667 L602.786667,191.146667 L602.786667,392.533333 C602.786667,418.925181 581.391847,440.32 555,440.32 C528.608153,440.32 507.213333,418.925181 507.213333,392.533333 L507.213333,262.826667 L319.577124,262.829711 C323.191197,389.745185 427.210208,491.52 555,491.52 C685.074104,491.52 790.52,386.074104 790.52,256 C790.52,125.925896 685.074104,20.48 555,20.48 C435.33655,20.48 336.516769,109.722357 321.464965,225.282764 L300.824271,225.27987 C316.000693,98.3788899 424.011536,0 555,0 C696.384896,0 811,114.615104 811,256 C811,397.384896 696.384896,512 555,512 C413.615104,512 299,397.384896 299,256 C299,251.420284 299.120258,246.868655 299.357788,242.348099 L541.346667,242.346667 L541.346667,392.533333 Z" id="Path-T"></path>
            </g>
        </g>
    </g>
</svg>